<svg id="_x33_0" enable-background="new 0 0 64 64" height="512" viewBox="0 0 64 64" width="512" xmlns="http://www.w3.org/2000/svg" xmlns:xlink="http://www.w3.org/1999/xlink"><linearGradient id="SVGID_1_" gradientUnits="userSpaceOnUse" x1="32" x2="32" y1="63" y2="1"><stop offset="0" stop-color="#9f2fff"/><stop offset="1" stop-color="#0bb1d3"/></linearGradient><path d="m29 38c0 .552-.448 1-1 1s-1-.448-1-1 .448-1 1-1 1 .448 1 1zm7 1c.552 0 1-.448 1-1s-.448-1-1-1-1 .448-1 1 .448 1 1 1zm-7 6v2h4c2.206 0 4-1.794 4-4h-2c0 1.103-.897 2-2 2zm3.707-10.707c-1.101-1.101-1.707-2.565-1.707-4.122v-1.171h-2v1.171c0 2.091.814 4.057 2.293 5.536zm.318-33.293h-2v4h2zm-5.193 4.445-2-3-1.664 1.109 2 3zm-4.125 3.848-4-4-1.414 1.414 4 4zm16.125-5.738-1.664-1.109-2 3 1.664 1.109zm5.875 3.152-1.414-1.414-4 4 1.414 1.414zm17.293 31.293c0 1.654-1.346 3-3 3-1.302 0-2.402-.839-2.816-2h-4.216c-.181 3.884-1.405 7.549-3.496 10.671l3.024 2.235c.688-.558 1.552-.906 2.504-.906 2.206 0 4 1.794 4 4s-1.794 4-4 4-4-1.794-4-4c0-.529.108-1.032.296-1.494l-3.015-2.229c-1.209 1.476-2.626 2.802-4.237 3.927 1.822 1.775 3.198 4 3.918 6.521l.364 1.275h-32.652l.364-1.275c.72-2.52 2.096-4.746 3.918-6.521-1.611-1.125-3.027-2.451-4.237-3.927l-3.015 2.229c.188.462.296.965.296 1.494 0 2.206-1.794 4-4 4s-4-1.794-4-4 1.794-4 4-4c.952 0 1.816.348 2.504.906l3.024-2.235c-2.09-3.122-3.315-6.786-3.496-10.671h-4.216c-.414 1.161-1.514 2-2.816 2-1.654 0-3-1.346-3-3s1.346-3 3-3c1.302 0 2.402.839 2.816 2h4.228c.24-4.958 2.241-9.557 5.446-13.095l-2.019-2.02c-.981.699-2.177 1.115-3.471 1.115-3.309 0-6-2.691-6-6s2.691-6 6-6 6 2.691 6 6c0 1.294-.416 2.49-1.115 3.471l2.012 2.012c2.326-2.127 5.137-3.739 8.268-4.647-.618-1.073-1.165-2.297-1.165-3.836 0-2.009.864-3.923 2.372-5.252 1.508-1.328 3.529-1.942 5.535-1.69 2.308.292 4.389 1.85 5.432 4.067 1.246 2.654.484 4.866-.482 6.72 3.12.908 5.924 2.517 8.245 4.64l2.013-2.014c-.699-.981-1.115-2.177-1.115-3.471 0-3.309 2.691-6 6-6s6 2.691 6 6-2.691 6-6 6c-1.294 0-2.49-.416-3.471-1.115l-2.022 2.022c3.206 3.539 5.208 8.14 5.449 13.093h4.228c.414-1.161 1.514-2 2.816-2 1.654 0 3 1.346 3 3zm-52 17c0-1.103-.897-2-2-2s-2 .897-2 2 .897 2 2 2 2-.897 2-2zm42 0c0 1.103.897 2 2 2s2-.897 2-2-.897-2-2-2-2 .897-2 2zm-4-38c0 2.206 1.794 4 4 4s4-1.794 4-4-1.794-4-4-4-4 1.794-4 4zm-22-3c0 1.413.683 2.515 1.406 3.681.626 1.01 1.262 2.052 1.495 3.319h1.099v-4.184c-1.161-.414-2-1.514-2-2.816v-1h2v1c0 .551.448 1 1 1s1-.449 1-1v-1h2v1c0 1.302-.839 2.402-2 2.816v4.184h1.119c.233-1.009.778-1.966 1.347-2.965 1.103-1.932 2.144-3.757 1.062-6.06-.754-1.603-2.237-2.728-3.871-2.934-.222-.027-.444-.041-.664-.041-1.221 0-2.372.432-3.298 1.248-1.077.95-1.695 2.317-1.695 3.752zm14 29c1.103 0 2-.897 2-2s-.897-2-2-2zm2-8.991c0-4.437-3.299-8.22-7.619-8.894-.708 1.128-1.953 1.885-3.381 1.885-1.383 0-2.603-.706-3.322-1.776-2.136.544-3.922 2.078-4.749 4.148l-.115.289-.45.3c-1.48.985-2.364 2.636-2.364 4.414 0 .348.034.699.103 1.042l.378 1.887c.468-.194.981-.304 1.519-.304v-2c0-2.206 1.794-4 4-4v2c-1.103 0-2 .897-2 2v9c0 2.757 2.243 5 5 5h4c2.757 0 5-2.243 5-5v-6.675c0-.959-.611-1.808-1.521-2.111-2.679-.894-4.479-3.391-4.479-6.214h2c0 1.961 1.25 3.696 3.111 4.316 1.623.541 2.733 1.999 2.863 3.684h.026c.538 0 1.05.11 1.519.304l.306-1.528c.116-.582.175-1.176.175-1.767zm-6.924 19.071-2 1 2.221 1.333.424-2.118zm-8.797.215.424 2.118 2.221-1.333-2-1zm3.339 7.705h2.764l-1-2h-.763zm2.124-5.389-.742-.445-.742.445.463 1.389h.558zm1.861-4.642c-.199.018-.4.031-.603.031h-4c-.203 0-.404-.013-.603-.031l-.175.524 2.778 1.389 2.777-1.388zm-11.603-11.969c-1.103 0-2 .897-2 2s.897 2 2 2zm7-16c0 1.103.897 2 2 2s2-.897 2-2zm-15-6c0-2.206-1.794-4-4-4s-4 1.794-4 4 1.794 4 4 4 4-1.794 4-4zm-10 21c0-.551-.448-1-1-1s-1 .449-1 1 .448 1 1 1 1-.449 1-1zm16.553 15.861c1.219-.891 2.566-1.622 4.037-2.112l1.62-.54.233-.7c-2.298-.906-4-2.992-4.363-5.51h-.08c-2.206 0-4-1.794-4-4 0-.85.27-1.635.724-2.283l-.582-2.908c-.094-.472-.142-.954-.142-1.433 0-2.425 1.193-4.678 3.195-6.041 1.092-2.468 3.256-4.309 5.837-5.015-.008-.106-.032-.209-.032-.319v-1c0-.858-.322-1.605-.763-2.38-8.287 2.146-14.237 9.753-14.237 18.38 0 6.452 3.189 12.328 8.553 15.861zm-3.154 7.139h9.982l1.538-3.077-.419-1.258-3.203 1.922-.921-4.606c-3.178 1.317-5.694 3.839-6.977 7.019zm20.225-7.019-.921 4.606-3.203-1.922-.419 1.258 1.537 3.077h9.982c-1.282-3.18-3.798-5.702-6.976-7.019zm12.376-15.981c0-8.583-5.909-16.176-14.143-18.355-.472.854-.857 1.659-.857 2.355v1c0 .062-.016.121-.018.182 5.137.947 9.018 5.505 9.018 10.827 0 .722-.072 1.448-.214 2.159l-.51 2.549c.453.648.724 1.433.724 2.283 0 2.206-1.794 4-4 4h-.08c-.363 2.518-2.065 4.603-4.363 5.51l.233.7 1.62.54c1.471.49 2.818 1.221 4.037 2.112 5.364-3.534 8.553-9.41 8.553-15.862zm10 0c0-.551-.448-1-1-1s-1 .449-1 1 .448 1 1 1 1-.449 1-1z" fill="url(#SVGID_1_)"/></svg>